<svg width="15" height="22" viewBox="0 0 15 22" fill="none" xmlns="http://www.w3.org/2000/svg">
<path d="M7.49996 0C3.3644 0 0 3.45553 0 7.70311C0 11.812 6.85673 21.1736 7.14881 21.5706C7.23087 21.6839 7.36235 21.75 7.5 21.75C7.63765 21.75 7.76913 21.6839 7.85119 21.5706C8.14323 21.1736 15 11.8121 15 7.70311C14.9999 3.45553 11.6355 0 7.49996 0ZM7.49996 11.7812C5.31085 11.7812 3.52939 9.95152 3.52939 7.70311C3.52939 5.4547 5.31085 3.62499 7.49996 3.62499C9.68907 3.62499 11.4705 5.4547 11.4705 7.70311C11.4705 9.95152 9.68907 11.7812 7.49996 11.7812Z" fill="#03439A"/>
</svg>
