<svg width="107" height="53" viewBox="0 0 107 53" fill="none" xmlns="http://www.w3.org/2000/svg">
<g clip-path="url(#clip0_851_589)">
<path d="M100.409 52.8411H106.999V47.9664H106.188V52.0596H104.104V47.9664H103.304V52.0596H101.22V47.9664H100.409V52.8411ZM95.8525 51.3898L96.8792 49.012L97.906 51.3898H95.8525ZM94.3426 52.8411H95.2183L95.5165 52.1713H98.2495L98.5401 52.8411H99.4159L97.2756 47.9664H96.4829L94.3426 52.8411ZM87.6348 52.8411H88.4464V49.3283L90.0846 52.8411H90.8924L92.5458 49.3023V52.8411H93.3536V47.9664H92.308L90.4885 51.8513L88.6766 47.9664H87.6348V52.8411ZM81.195 50.3963C81.195 50.9115 81.35 51.4151 81.6403 51.8434C81.9307 52.2718 82.3434 52.6057 82.8262 52.8028C83.309 53 83.8403 53.0515 84.3529 52.951C84.8654 52.8505 85.3363 52.6024 85.7058 52.2382C86.0753 51.8739 86.327 51.4097 86.4289 50.9045C86.5309 50.3992 86.4786 49.8755 86.2786 49.3995C86.0786 48.9235 85.7399 48.5167 85.3054 48.2305C84.8709 47.9443 84.36 47.7915 83.8374 47.7915C83.1379 47.7915 82.4669 48.0649 81.9716 48.5518C81.4763 49.0387 81.197 49.6993 81.195 50.3889V50.3963ZM85.6681 50.3963C85.6696 50.754 85.5635 51.1041 85.3632 51.4023C85.1628 51.7005 84.8773 51.9334 84.5426 52.0717C84.208 52.2099 83.8393 52.2472 83.4831 52.1789C83.127 52.1105 82.7994 51.9396 82.5417 51.6878C82.2841 51.4359 82.1081 51.1144 82.0358 50.7638C81.9636 50.4133 81.9984 50.0496 82.1358 49.7185C82.2733 49.3875 82.5073 49.1041 82.8081 48.9042C83.109 48.7043 83.4632 48.5967 83.826 48.5953C84.314 48.5903 84.7839 48.7764 85.1328 49.1126C85.4817 49.4489 85.681 49.9079 85.687 50.3889L85.6681 50.3963ZM76.7408 52.8411H77.5561V48.7478H80.4023V47.9552H76.7408V52.8411ZM71.6713 47.9664C71.7204 48.9901 71.6647 50.0162 71.5052 51.0289C71.4703 51.2999 71.3566 51.5552 71.1778 51.7639C70.9989 51.9726 70.7626 52.1257 70.4973 52.2048L70.7464 52.949C71.6033 52.6811 72.0601 52.1266 72.2903 51.2075C72.446 50.3971 72.5081 49.572 72.4753 48.7478H74.525V52.8411H75.3403V47.9664H71.6713ZM64.6502 50.3963C64.6502 50.9115 64.8051 51.4151 65.0955 51.8434C65.3858 52.2718 65.7985 52.6057 66.2813 52.8028C66.7642 53 67.2954 53.0515 67.808 52.951C68.3206 52.8505 68.7914 52.6024 69.1609 52.2382C69.5305 51.8739 69.7821 51.4097 69.8841 50.9045C69.986 50.3992 69.9337 49.8755 69.7337 49.3995C69.5337 48.9235 69.1951 48.5167 68.7605 48.2305C68.326 47.9443 67.8151 47.7915 67.2925 47.7915C66.593 47.7915 65.9221 48.0649 65.4268 48.5518C64.9314 49.0387 64.6522 49.6993 64.6502 50.3889V50.3963ZM69.1233 50.3963C69.1248 50.754 69.0186 51.1041 68.8183 51.4023C68.618 51.7005 68.3324 51.9334 67.9978 52.0717C67.6631 52.2099 67.2944 52.2472 66.9383 52.1789C66.5821 52.1105 66.2545 51.9396 65.9969 51.6878C65.7393 51.4359 65.5632 51.1144 65.4909 50.7638C65.4187 50.4133 65.4535 50.0496 65.591 49.7185C65.7284 49.3875 65.9624 49.1041 66.2633 48.9042C66.5641 48.7043 66.9184 48.5967 67.2812 48.5953C67.7658 48.5952 68.231 48.7835 68.5758 49.1192C68.9206 49.455 69.1173 49.9111 69.1233 50.3889V50.3963ZM55.1339 51.3898L56.1607 49.012L57.1912 51.3898H55.1339ZM53.624 52.8411H54.4998L54.8018 52.1713H57.5309L57.8216 52.8411H58.6973L56.557 47.9664H55.7643L53.624 52.8411ZM50.0267 50.8614V48.7478H51.378C51.5269 48.7355 51.6767 48.7538 51.818 48.8015C51.9593 48.8492 52.0891 48.9253 52.199 49.025C52.309 49.1247 52.3967 49.2458 52.4568 49.3806C52.5168 49.5155 52.5478 49.6611 52.5478 49.8084C52.5478 49.9556 52.5168 50.1013 52.4568 50.2361C52.3967 50.3709 52.309 50.492 52.199 50.5917C52.0891 50.6914 51.9593 50.7675 51.818 50.8152C51.6767 50.8629 51.5269 50.8812 51.378 50.8689L50.0267 50.8614ZM49.2226 52.8411H50.0267V51.6317H51.3818C51.633 51.6429 51.8839 51.6037 52.1193 51.5167C52.3547 51.4296 52.5698 51.2964 52.7515 51.1251C52.9333 50.9539 53.0779 50.7481 53.1768 50.5201C53.2756 50.2922 53.3266 50.0469 53.3266 49.7991C53.3266 49.5512 53.2756 49.3059 53.1768 49.078C53.0779 48.8501 52.9333 48.6443 52.7515 48.473C52.5698 48.3017 52.3547 48.1685 52.1193 48.0814C51.8839 47.9944 51.633 47.9552 51.3818 47.9664H49.2226V52.8411ZM44.6665 51.3898L45.6932 49.012L46.7237 51.3898H44.6665ZM43.1566 52.8411H44.0323L44.3305 52.1713H47.0597L47.3503 52.8411H48.2261L46.0858 47.9664H45.2969L43.1566 52.8411ZM36.445 52.8411H37.2566V49.3283L38.8986 52.8411H39.7026L41.356 49.3023V52.8411H42.1638V47.9664H41.1446L39.3214 51.8513L37.5095 47.9664H36.4488L36.445 52.8411ZM31.8888 51.3898L32.9156 49.012L33.9461 51.3898H31.8888ZM30.3789 52.8411H31.2547L31.5529 52.1713H34.2821L34.5727 52.8411H35.4485L33.3082 47.9664H32.5268L30.3789 52.8411ZM60.8225 50.1135H62.1022C62.2429 50.1015 62.3846 50.1185 62.5183 50.1634C62.652 50.2082 62.7747 50.28 62.8788 50.3741C62.9829 50.4682 63.066 50.5827 63.1228 50.7101C63.1797 50.8376 63.209 50.9753 63.209 51.1145C63.209 51.2537 63.1797 51.3914 63.1228 51.5188C63.066 51.6463 62.9829 51.7607 62.8788 51.8548C62.7747 51.9489 62.652 52.0207 62.5183 52.0656C62.3846 52.1104 62.2429 52.1274 62.1022 52.1155H60.8301L60.8225 50.1135ZM62.608 49.4548C62.7188 49.3048 62.7771 49.1232 62.7741 48.9376C62.7741 48.6711 62.6667 48.4156 62.4756 48.2272C62.2844 48.0388 62.0252 47.9329 61.7549 47.9329H60.06V52.8411H62.1022C62.5802 52.8511 63.0429 52.6744 63.3893 52.3496C63.7358 52.0248 63.938 51.5782 63.9518 51.107C63.9434 50.7245 63.8082 50.3553 63.5669 50.0556C63.3256 49.756 62.9915 49.5424 62.6156 49.4474L62.608 49.4548ZM60.8112 48.5729H61.5662C61.6652 48.5734 61.7601 48.6121 61.8304 48.6809C61.8962 48.7499 61.9329 48.841 61.9329 48.9358C61.9329 49.0305 61.8962 49.1216 61.8304 49.1907C61.7601 49.2594 61.6652 49.2982 61.5662 49.2986H60.8112V48.5729ZM28.9672 51.2187C28.8164 51.5178 28.5838 51.7693 28.2957 51.9449C28.0075 52.1205 27.6752 52.2131 27.3365 52.2122C26.8499 52.2122 26.3833 52.0217 26.0392 51.6825C25.6952 51.3434 25.5019 50.8834 25.5019 50.4037C25.5019 49.9241 25.6952 49.4641 26.0392 49.125C26.3833 48.7858 26.8499 48.5953 27.3365 48.5953C27.6748 48.592 28.0072 48.6828 28.2956 48.8572C28.5841 49.0316 28.8168 49.2826 28.9672 49.5814L29.6919 49.2093C29.421 48.6918 28.982 48.2788 28.445 48.0362C27.9081 47.7935 27.3041 47.7352 26.7296 47.8706C26.1551 48.006 25.6432 48.3272 25.2756 48.783C24.908 49.2388 24.7059 49.8029 24.7017 50.3851C24.7034 50.9684 24.9037 51.5341 25.2704 51.9918C25.6371 52.4495 26.1491 52.7726 26.7242 52.9094C27.2993 53.0462 27.9044 52.9888 28.4425 52.7463C28.9805 52.5039 29.4205 52.0904 29.6919 51.5722L28.9672 51.2187Z" fill="#9B9B9B"/>
<path fill-rule="evenodd" clip-rule="evenodd" d="M0 39.2539H19.6666L21.9579 43.6448H0V39.2539Z" fill="#B90C2F"/>
<path d="M46.6183 0C53.1277 0.00344323 59.5209 1.70092 65.1515 4.92085C70.7821 8.14077 75.4506 12.769 78.6851 18.3377H73.4306C72.2919 16.7014 71.0031 15.1718 69.5803 13.7682C63.973 8.21299 56.4929 4.87919 48.5581 4.39884C40.6234 3.91849 32.7856 6.325 26.5309 11.1621C20.2763 15.9992 16.0395 22.9306 14.624 30.642C13.2084 38.3535 14.7125 46.3089 18.851 53H13.7475C10.866 47.4499 9.47851 41.2635 9.71787 35.0332C9.95723 28.8029 11.8155 22.7376 15.1145 17.4183C18.4136 12.099 23.043 7.70388 28.5592 4.65398C34.0754 1.60408 40.2937 0.00158005 46.6183 0" fill="#012269"/>
<path d="M79.272 21.0996H84.9342V36.4009H79.4909V28.2144H79.272L75.1651 32.903L71.0656 28.2032H70.8429V36.3897H65.411V21.0996H71.0732L75.1726 25.7994L79.272 21.0996ZM49.9986 32.0286H55.5437V31.809L52.7693 28.7502L55.321 25.6766V25.457H49.9986V32.0286ZM44.5667 36.4009V21.0996H61.4173V25.4719L58.6466 28.7502L61.64 32.0286V36.4009H44.5667ZM22.0576 28.7502L26.0476 21.0996H40.354V27.2209H35.141V25.4719H29.7091L28.0444 28.7502L29.7091 32.0286H35.141V30.2796H40.354V36.4009H26.0476L22.0576 28.7502Z" fill="#B90C2F"/>
<path fill-rule="evenodd" clip-rule="evenodd" d="M106.999 43.6448H29.386L27.0947 39.2539H106.999V43.6448Z" fill="#B90C2F"/>
</g>
<defs>
<clipPath id="clip0_851_589">
<rect width="107" height="53" fill="white"/>
</clipPath>
</defs>
</svg>
