<svg width="19" height="14" viewBox="0 0 19 14" fill="none" xmlns="http://www.w3.org/2000/svg">
<path d="M12.5947 6.9434L18.9999 11.1843V2.52344L12.5947 6.9434Z" fill="#03439A"/>
<path d="M0 2.52344V11.1843L6.40521 6.9434L0 2.52344Z" fill="#03439A"/>
<path d="M17.8126 0H1.18798C0.595431 0 0.125193 0.462641 0.0361328 1.05835L9.50027 7.5888L18.9644 1.05835C18.8753 0.462641 18.4051 0 17.8126 0Z" fill="#03439A"/>
<path d="M11.5067 7.69656L9.8264 8.85565C9.72665 8.92405 9.61384 8.95763 9.49984 8.95763C9.38585 8.95763 9.27304 8.92405 9.17329 8.85565L7.49302 7.69531L0.0380859 12.6339C0.129521 13.2246 0.597384 13.6835 1.18756 13.6835H17.8121C18.4023 13.6835 18.8702 13.2246 18.9616 12.6339L11.5067 7.69656Z" fill="#03439A"/>
</svg>
