<svg width="11" height="17" viewBox="0 0 11 17" fill="none" xmlns="http://www.w3.org/2000/svg">
<path fill-rule="evenodd" clip-rule="evenodd" d="M5.47047 8.41796C3.08062 8.41669 1.2359 6.61753 1.23852 4.29044C1.24106 2.04495 3.1817 0.182388 5.50105 0.199333C7.85054 0.216448 9.76165 2.07859 9.74209 4.36167C9.72094 6.83816 7.54425 8.51601 5.47047 8.41796ZM10.2992 10.0342C10.0025 10.8151 9.30972 11.0916 8.6202 11.3668C8.4952 11.4167 8.3703 11.4665 8.24789 11.5193C8.04449 11.607 7.82928 11.6692 7.59204 11.7378L7.59197 11.7378C7.47698 11.771 7.35681 11.8057 7.23031 11.8456C7.26812 11.8895 7.30278 11.9316 7.33593 11.9719L7.33593 11.9719C7.40348 12.054 7.46477 12.1284 7.5338 12.1955C7.8579 12.5107 8.18344 12.8245 8.509 13.1383L8.5094 13.1387L8.50948 13.1388C8.84245 13.4598 9.17542 13.7808 9.50685 14.1032C10.0564 14.6379 10.0916 15.3853 9.59648 15.8635C9.10228 16.3408 8.32765 16.3021 7.77448 15.7699C7.43672 15.445 7.09962 15.1193 6.76252 14.7937L6.7625 14.7937C6.46216 14.5036 6.16181 14.2134 5.86101 13.9238C5.78909 13.8546 5.71472 13.7877 5.61893 13.7016L5.61889 13.7015L5.61884 13.7015C5.56781 13.6556 5.5107 13.6042 5.44465 13.5442C5.32627 13.6664 5.21094 13.7865 5.09733 13.9048C4.84537 14.1673 4.60186 14.4209 4.35228 14.6689L4.34774 14.6734L4.3477 14.6734C3.94387 15.0747 3.53944 15.4765 3.11542 15.8573C2.59484 16.3251 1.81252 16.3068 1.35003 15.8398C0.903874 15.3895 0.913571 14.6475 1.39659 14.168C1.84222 13.7257 2.29552 13.2906 2.74881 12.8555L2.7489 12.8554C2.96596 12.647 3.18303 12.4387 3.39926 12.2295C3.47218 12.159 3.54306 12.0865 3.62216 12.0056L3.62232 12.0055C3.66229 11.9646 3.70435 11.9216 3.74984 11.8756C3.57618 11.8119 3.40713 11.7513 3.24165 11.6919C2.85645 11.5537 2.4906 11.4224 2.13104 11.2767C1.85148 11.1634 1.58424 11.0143 1.32819 10.8562C0.704166 10.4711 0.524727 9.79164 0.878976 9.216C1.22659 8.65123 1.95256 8.47048 2.58488 8.82886C3.46827 9.32947 4.4088 9.62513 5.43434 9.63356C6.38081 9.64132 7.29495 9.455 8.09763 8.96772C8.95054 8.44983 9.81297 8.48709 10.2992 9.61265V10.0342ZM5.47508 2.58764C6.48585 2.58435 7.26974 3.33973 7.27114 4.31835C7.27245 5.28272 6.47493 6.07528 5.49395 6.08438C4.53438 6.09323 3.67693 5.26982 3.67474 4.3374C3.67247 3.38272 4.48738 2.59084 5.47508 2.58764Z" fill="white"/>
</svg>
