<svg width="31" height="32" viewBox="0 0 31 32" fill="none" xmlns="http://www.w3.org/2000/svg">
<path d="M7.42132 13.0625H5.43751C5.18838 13.0625 4.94944 13.1617 4.7735 13.3381C4.59757 13.5146 4.49919 13.7538 4.5 14.003L4.51382 21.1246C4.51382 21.6423 4.93357 22.0621 5.45132 22.0621C5.96907 22.0621 6.38882 21.6423 6.38882 21.1246V18.9622C6.77213 18.9603 7.18163 18.9586 7.42132 18.9586C9.06857 18.9586 10.4088 17.6361 10.4088 16.0106C10.4088 14.385 9.06857 13.0625 7.42132 13.0625ZM7.42132 17.0836C7.1795 17.0836 6.76851 17.0853 6.38369 17.0873C6.38169 16.6882 6.37994 16.2584 6.37994 16.0106C6.37994 15.7985 6.37888 15.3547 6.37775 14.9375H7.42125C8.02425 14.9375 8.53369 15.4289 8.53369 16.0106C8.53369 16.5922 8.02432 17.0836 7.42132 17.0836Z" fill="#03439A"/>
<path d="M15.3956 13.0625H13.4375C13.1886 13.0625 12.9498 13.1615 12.7739 13.3377C12.5981 13.5139 12.4995 13.7528 12.5 14.0017C12.5 14.0018 12.5139 20.8921 12.514 20.9171C12.5149 21.1658 12.6146 21.4039 12.7911 21.5791C12.9668 21.7535 13.2041 21.8512 13.4515 21.8512H13.4551C13.5143 21.851 14.9109 21.8457 15.4693 21.8359C17.5877 21.7989 19.1252 19.9572 19.1252 17.4569C19.1251 14.8285 17.6264 13.0625 15.3956 13.0625ZM15.4366 19.9613C15.1938 19.9655 14.776 19.9689 14.3859 19.9714C14.3833 19.1571 14.3781 15.7838 14.3767 14.9375H15.3956C17.1164 14.9375 17.2501 16.8659 17.2501 17.4569C17.2501 18.6877 16.6894 19.9394 15.4366 19.9613Z" fill="#03439A"/>
<path d="M25.3039 14.8672C25.8217 14.8672 26.2414 14.4474 26.2414 13.9297C26.2414 13.4119 25.8217 12.9922 25.3039 12.9922H22.4375C21.9197 12.9922 21.5 13.4119 21.5 13.9297V21.0021C21.5 21.5198 21.9197 21.9396 22.4375 21.9396C22.9553 21.9396 23.375 21.5198 23.375 21.0021V18.3364H25.0763C25.594 18.3364 26.0138 17.9167 26.0138 17.3989C26.0138 16.8812 25.594 16.4614 25.0763 16.4614H23.375V14.8672H25.3039Z" fill="#03439A"/>
<path d="M28.0625 9.0625H27.375V8.79506C27.375 7.58994 26.9184 6.44463 26.0893 5.57L22.1952 1.46244C21.3141 0.533063 20.0742 0 18.7934 0H6.3125C4.76169 0 3.5 1.26169 3.5 2.8125V9.0625H2.8125C1.26169 9.0625 0 10.3242 0 11.875V23.125C0 24.6758 1.26169 25.9375 2.8125 25.9375H3.5V29.1875C3.5 30.7383 4.76169 32 6.3125 32H24.5625C26.1133 32 27.375 30.7383 27.375 29.1875V25.9375H28.0625C29.6133 25.9375 30.875 24.6758 30.875 23.125V11.875C30.875 10.3242 29.6133 9.0625 28.0625 9.0625ZM5.375 2.8125C5.375 2.29556 5.79556 1.875 6.3125 1.875H18.7934C19.5619 1.875 20.3058 2.19481 20.8345 2.7525L24.7286 6.86006C25.2261 7.38481 25.5 8.072 25.5 8.79506V9.0625H5.375V2.8125ZM25.5 29.1875C25.5 29.7044 25.0794 30.125 24.5625 30.125H6.3125C5.79556 30.125 5.375 29.7044 5.375 29.1875V25.9375H25.5V29.1875ZM29 23.125C29 23.6419 28.5794 24.0625 28.0625 24.0625H2.8125C2.29556 24.0625 1.875 23.6419 1.875 23.125V11.875C1.875 11.3581 2.29556 10.9375 2.8125 10.9375H28.0625C28.5794 10.9375 29 11.3581 29 11.875V23.125Z" fill="#03439A"/>
</svg>
