<svg width="17" height="19" viewBox="0 0 17 19" fill="none" xmlns="http://www.w3.org/2000/svg">
<path d="M15.6579 12.51C14.6092 12.51 13.5821 12.327 12.6086 11.968C12.1335 11.785 11.594 11.926 11.2817 12.282L9.3518 13.911C7.13732 12.59 5.72006 11.007 4.55423 8.55001L5.97237 6.44401C6.32937 6.045 6.45734 5.46099 6.30434 4.914C5.98043 3.819 5.81581 2.67 5.81581 1.5C5.81581 0.672985 5.21366 0 4.4737 0H1.34211C0.602144 0 0 0.672985 0 1.5C0 11.149 7.02459 19 15.6579 19C16.3979 19 17 18.327 17 17.5V14.01C17 13.183 16.3979 12.51 15.6579 12.51Z" fill="#03439A"/>
</svg>
