<svg width="14" height="14" viewBox="0 0 14 14" fill="none" xmlns="http://www.w3.org/2000/svg">
<path fill-rule="evenodd" clip-rule="evenodd" d="M13.0999 1.40794C13.1106 1.63222 13.0182 1.89751 12.9245 2.16112C11.7355 5.50916 10.5413 8.8554 9.35865 12.2057C9.19134 12.6797 8.99998 13.1233 8.43595 13.192C7.83241 13.2658 7.51386 12.8385 7.27962 12.3897C6.68792 11.2559 6.11664 10.1109 5.56795 8.95603C5.33141 8.45819 4.99159 8.12429 4.487 7.8945C3.50075 7.44523 2.53456 6.95231 1.56173 6.47426C1.36385 6.37711 1.16163 6.28213 0.981027 6.158C0.587811 5.88779 0.248714 5.55581 0.307425 5.03531C0.367102 4.50688 0.773486 4.28621 1.23568 4.12598C4.65105 2.94164 8.064 1.75059 11.4783 0.563618C11.6486 0.504371 11.8228 0.446684 12 0.41814C12.6609 0.31164 13.1034 0.689787 13.0999 1.40794Z" fill="white"/>
</svg>
