<svg width="15" height="13" viewBox="0 0 15 13" fill="none" xmlns="http://www.w3.org/2000/svg">
<path fill-rule="evenodd" clip-rule="evenodd" d="M0.947069 0.915214C0.947069 0.915214 3.40874 4.00365 7.15884 4.1894C7.15884 4.1894 6.39342 2.14103 8.68154 0.736944C8.68154 0.736944 10.5405 -0.365155 12.3346 1.41937C12.3346 1.41937 13.1437 1.37977 14.119 0.655929C14.119 0.655929 14.2626 1.32193 12.9908 2.3932C12.9908 2.3932 13.6984 2.33535 14.5016 1.80438C14.5016 1.80438 14.3486 2.72127 13.0385 3.38727C13.0385 3.38727 13.4371 10.6418 6.42306 12.2296C6.42306 12.2296 2.71383 13.0744 0.101563 11.006C0.101563 11.006 2.87255 11.2972 4.34464 9.73858C4.34464 9.73858 2.49743 9.91338 1.58811 7.71375C1.58811 7.71375 2.51172 7.87395 2.88701 7.56814C2.88701 7.56814 0.938572 7.58255 0.505605 4.64009C0.505605 4.64009 1.29941 5.04791 1.81897 4.9751C1.81897 4.9751 -0.386723 3.60003 0.947069 0.915214Z" fill="white"/>
</svg>
