<svg width="17" height="9" viewBox="0 0 17 9" fill="none" xmlns="http://www.w3.org/2000/svg">
<path fill-rule="evenodd" clip-rule="evenodd" d="M0.699219 0.745484C0.699219 0.679171 0.699219 0.612882 0.699219 0.546569C0.768177 0.40805 0.886541 0.337013 1.03898 0.317544C1.11892 0.307325 1.2 0.300835 1.28056 0.300661C1.96623 0.299194 2.65211 0.309289 3.33751 0.295614C3.72843 0.287831 3.97073 0.456387 4.11553 0.796381C4.22121 1.04458 4.32976 1.2924 4.45354 1.53234C4.6479 1.90898 4.83821 2.28948 5.06316 2.64885C5.33012 3.07537 5.62425 3.4866 5.92327 3.89288C6.01462 4.017 6.15202 4.11542 6.28399 4.20344C6.48974 4.34069 6.68232 4.29496 6.79376 4.07812C6.8629 3.9436 6.91407 3.79293 6.93631 3.64429C7.04979 2.8855 7.04319 2.12473 6.93173 1.36625C6.91294 1.23829 6.86397 1.10873 6.80179 0.993828C6.66678 0.744365 6.4252 0.636901 6.15537 0.573771C6.00808 0.539309 5.99195 0.48503 6.0847 0.368491C6.27271 0.132355 6.5134 -0.000644126 6.8277 2.34577e-06C7.688 0.00176771 8.54832 -0.00153924 9.40859 0.00132015C9.66615 0.00216554 9.88759 0.150431 9.94727 0.363891C9.9827 0.49055 10.0087 0.623947 10.0101 0.754609C10.0168 1.38845 10.0125 2.02237 10.0146 2.65626C10.0157 2.97517 10.01 3.29477 10.0304 3.61269C10.0425 3.80148 10.0977 3.98749 10.2434 4.13235C10.3967 4.28482 10.5601 4.31155 10.7152 4.16589C10.9315 3.96277 11.1422 3.74941 11.3246 3.51755C11.7261 3.00719 12.0586 2.45252 12.3446 1.87368C12.5304 1.49763 12.6969 1.11241 12.8671 0.729223C13.0173 0.391143 13.1538 0.297653 13.5283 0.296758C13.8818 0.295937 14.2353 0.296683 14.5888 0.29723C15.0999 0.298001 15.611 0.2936 16.1219 0.3027C16.3579 0.306902 16.5807 0.361355 16.6992 0.596298V0.820077C16.6868 0.850585 16.6759 0.88174 16.6618 0.911478C16.5143 1.22198 16.4035 1.55633 16.211 1.83777C15.7738 2.47708 15.2966 3.09059 14.8351 3.71413C14.634 3.98585 14.4241 4.25172 14.2316 4.52911C14.0727 4.75816 14.014 5.00703 14.1807 5.26111C14.2352 5.34416 14.2981 5.42452 14.3695 5.49407C14.8407 5.95279 15.3263 6.39798 15.7853 6.86787C16.1675 7.25923 16.5384 7.66636 16.6992 8.20477V8.27937C16.6937 8.29043 16.6854 8.30097 16.6832 8.31261C16.6125 8.67856 16.4681 8.79518 16.0849 8.7954C15.3353 8.79585 14.5856 8.78948 13.8361 8.79935C13.3114 8.80627 12.8688 8.62809 12.505 8.27216C12.2023 7.97595 11.9253 7.65495 11.6234 7.35787C11.4246 7.16216 11.2127 6.97533 10.9862 6.81118C10.8292 6.69735 10.6428 6.70439 10.4763 6.83169C10.3017 6.96529 10.2188 7.15727 10.1752 7.3521C10.1067 7.65786 10.077 7.97184 10.0309 8.28232C9.98236 8.60904 9.82098 8.75422 9.4847 8.77832C8.88772 8.82113 8.29416 8.80346 7.70379 8.69903C6.87409 8.55225 6.12181 8.23526 5.43887 7.75388C4.7911 7.29733 4.24994 6.73818 3.78837 6.10978C3.38098 5.55516 2.98093 4.99216 2.62612 4.40511C2.18277 3.67154 1.77912 2.9146 1.37758 2.15805C1.1327 1.69662 0.924113 1.21696 0.699219 0.745484Z" fill="white"/>
</svg>
