<svg width="32" height="32" viewBox="0 0 32 32" fill="none" xmlns="http://www.w3.org/2000/svg">
<path d="M15.9999 2C10.4859 2 6 6.60737 6 12.2708C6 17.7494 15.1423 30.2315 15.5317 30.7607C15.6412 30.9118 15.8165 31 16 31C16.1835 31 16.3588 30.9118 16.4683 30.7607C16.8576 30.2315 26 17.7494 26 12.2708C25.9999 6.60737 21.514 2 15.9999 2ZM15.9999 17.7083C13.0811 17.7083 10.7058 15.2687 10.7058 12.2708C10.7058 9.27294 13.0811 6.83331 15.9999 6.83331C18.9188 6.83331 21.294 9.27294 21.294 12.2708C21.294 15.2687 18.9188 17.7083 15.9999 17.7083Z" fill="white"/>
</svg>
