<svg width="107" height="53" viewBox="0 0 107 53" fill="none" xmlns="http://www.w3.org/2000/svg">
<path d="M100.409 52.8406H107V47.9659H106.188V52.0591H104.105V47.9659H103.304V52.0591H101.221V47.9659H100.409V52.8406ZM95.853 51.3894L96.8797 49.0116L97.9065 51.3894H95.853ZM94.3431 52.8406H95.2188L95.517 52.1708H98.25L98.5406 52.8406H99.4164L97.2761 47.9659H96.4834L94.3431 52.8406ZM87.6353 52.8406H88.4469V49.3278L90.0851 52.8406H90.8929L92.5463 49.3018V52.8406H93.3541V47.9659H92.3085L90.489 51.8508L88.6771 47.9659H87.6353V52.8406ZM81.1955 50.3958C81.1955 50.911 81.3505 51.4146 81.6408 51.8429C81.9312 52.2713 82.3439 52.6052 82.8267 52.8023C83.3095 52.9995 83.8408 53.0511 84.3534 52.9505C84.8659 52.85 85.3367 52.602 85.7063 52.2377C86.0758 51.8734 86.3275 51.4093 86.4294 50.904C86.5314 50.3987 86.4791 49.875 86.2791 49.399C86.0791 48.923 85.7404 48.5162 85.3059 48.23C84.8713 47.9438 84.3605 47.791 83.8379 47.791C83.1384 47.791 82.4674 48.0644 81.9721 48.5513C81.4768 49.0382 81.1975 49.6988 81.1955 50.3884V50.3958ZM85.6686 50.3958C85.6701 50.7535 85.564 51.1036 85.3636 51.4018C85.1633 51.7 84.8778 51.9329 84.5431 52.0712C84.2085 52.2094 83.8398 52.2467 83.4836 52.1784C83.1274 52.1101 82.7999 51.9391 82.5422 51.6873C82.2846 51.4354 82.1085 51.1139 82.0363 50.7633C81.964 50.4128 81.9989 50.0491 82.1363 49.7181C82.2738 49.387 82.5078 49.1036 82.8086 48.9037C83.1095 48.7038 83.4637 48.5963 83.8265 48.5948C84.3145 48.5898 84.7844 48.7759 85.1333 49.1121C85.4822 49.4484 85.6815 49.9074 85.6875 50.3884L85.6686 50.3958ZM76.7413 52.8406H77.5566V48.7473H80.4028V47.9547H76.7413V52.8406ZM71.6717 47.9659C71.7209 48.9896 71.6652 50.0157 71.5056 51.0284C71.4708 51.2994 71.3571 51.5547 71.1783 51.7634C70.9994 51.9721 70.7631 52.1252 70.4978 52.2043L70.7469 52.9485C71.6038 52.6806 72.0605 52.1261 72.2908 51.207C72.4465 50.3966 72.5086 49.5715 72.4758 48.7473H74.5255V52.8406H75.3408V47.9659H71.6717ZM64.6507 50.3958C64.6507 50.911 64.8056 51.4146 65.096 51.8429C65.3863 52.2713 65.799 52.6052 66.2818 52.8023C66.7646 52.9995 67.2959 53.0511 67.8085 52.9505C68.3211 52.85 68.7919 52.602 69.1614 52.2377C69.531 51.8734 69.7826 51.4093 69.8846 50.904C69.9865 50.3987 69.9342 49.875 69.7342 49.399C69.5342 48.923 69.1955 48.5162 68.761 48.23C68.3265 47.9438 67.8156 47.791 67.293 47.791C66.5935 47.791 65.9226 48.0644 65.4272 48.5513C64.9319 49.0382 64.6527 49.6988 64.6507 50.3884V50.3958ZM69.1238 50.3958C69.1253 50.7535 69.0191 51.1036 68.8188 51.4018C68.6184 51.7 68.3329 51.9329 67.9982 52.0712C67.6636 52.2094 67.2949 52.2467 66.9387 52.1784C66.5826 52.1101 66.255 51.9391 65.9974 51.6873C65.7398 51.4354 65.5637 51.1139 65.4914 50.7633C65.4192 50.4128 65.454 50.0491 65.5915 49.7181C65.7289 49.387 65.9629 49.1036 66.2637 48.9037C66.5646 48.7038 66.9188 48.5963 67.2817 48.5948C67.7663 48.5947 68.2315 48.783 68.5763 49.1187C68.9211 49.4545 69.1178 49.9106 69.1238 50.3884V50.3958ZM55.1344 51.3894L56.1612 49.0116L57.1917 51.3894H55.1344ZM53.6245 52.8406H54.5003L54.8022 52.1708H57.5314L57.8221 52.8406H58.6978L56.5575 47.9659H55.7648L53.6245 52.8406ZM50.0272 50.8609V48.7473H51.3785C51.5274 48.735 51.6772 48.7533 51.8185 48.801C51.9598 48.8488 52.0896 48.9249 52.1995 49.0245C52.3095 49.1242 52.3972 49.2453 52.4573 49.3801C52.5173 49.515 52.5483 49.6606 52.5483 49.8079C52.5483 49.9551 52.5173 50.1008 52.4573 50.2356C52.3972 50.3704 52.3095 50.4915 52.1995 50.5912C52.0896 50.6909 51.9598 50.767 51.8185 50.8147C51.6772 50.8624 51.5274 50.8807 51.3785 50.8684L50.0272 50.8609ZM49.2231 52.8406H50.0272V51.6312H51.3823C51.6335 51.6424 51.8844 51.6032 52.1198 51.5162C52.3552 51.4291 52.5703 51.2959 52.752 51.1246C52.9338 50.9534 53.0784 50.7476 53.1773 50.5196C53.2761 50.2917 53.3271 50.0464 53.3271 49.7986C53.3271 49.5507 53.2761 49.3054 53.1773 49.0775C53.0784 48.8496 52.9338 48.6438 52.752 48.4725C52.5703 48.3012 52.3552 48.168 52.1198 48.081C51.8844 47.9939 51.6335 47.9547 51.3823 47.9659H49.2231V52.8406ZM44.667 51.3894L45.6937 49.0116L46.7242 51.3894H44.667ZM43.1571 52.8406H44.0328L44.331 52.1708H47.0602L47.3508 52.8406H48.2266L46.0863 47.9659H45.2973L43.1571 52.8406ZM36.4455 52.8406H37.2571V49.3278L38.8991 52.8406H39.7031L41.3565 49.3018V52.8406H42.1643V47.9659H41.1451L39.3219 51.8508L37.51 47.9659H36.4493L36.4455 52.8406ZM31.8893 51.3894L32.9161 49.0116L33.9466 51.3894H31.8893ZM30.3794 52.8406H31.2552L31.5534 52.1708H34.2825L34.5732 52.8406H35.4489L33.3086 47.9659H32.5273L30.3794 52.8406ZM60.823 50.113H62.1027C62.2434 50.101 62.3851 50.118 62.5188 50.1629C62.6525 50.2077 62.7752 50.2795 62.8793 50.3736C62.9834 50.4678 63.0665 50.5822 63.1233 50.7096C63.1802 50.8371 63.2095 50.9748 63.2095 51.114C63.2095 51.2532 63.1802 51.3909 63.1233 51.5184C63.0665 51.6458 62.9834 51.7602 62.8793 51.8543C62.7752 51.9485 62.6525 52.0202 62.5188 52.0651C62.3851 52.11 62.2434 52.1269 62.1027 52.115H60.8306L60.823 50.113ZM62.6085 49.4544C62.7193 49.3043 62.7776 49.1227 62.7746 48.9371C62.7746 48.6707 62.6672 48.4151 62.4761 48.2267C62.2849 48.0383 62.0257 47.9324 61.7554 47.9324H60.0605V52.8406H62.1027C62.5807 52.8506 63.0434 52.674 63.3898 52.3491C63.7363 52.0243 63.9385 51.5777 63.9523 51.1065C63.9439 50.7241 63.8087 50.3548 63.5674 50.0551C63.3261 49.7555 62.992 49.5419 62.616 49.4469L62.6085 49.4544ZM60.8117 48.5725H61.5667C61.6657 48.5729 61.7606 48.6116 61.8309 48.6804C61.8967 48.7494 61.9334 48.8405 61.9334 48.9353C61.9334 49.03 61.8967 49.1212 61.8309 49.1902C61.7606 49.2589 61.6657 49.2977 61.5667 49.2981H60.8117V48.5725ZM28.9676 51.2182C28.8169 51.5173 28.5843 51.7688 28.2962 51.9444C28.008 52.12 27.6757 52.2126 27.3369 52.2117C26.8504 52.2117 26.3838 52.0212 26.0397 51.682C25.6957 51.3429 25.5024 50.8829 25.5024 50.4032C25.5024 49.9236 25.6957 49.4636 26.0397 49.1245C26.3838 48.7853 26.8504 48.5948 27.3369 48.5948C27.6753 48.5915 28.0077 48.6823 28.2961 48.8567C28.5846 49.0311 28.8173 49.2821 28.9676 49.5809L29.6924 49.2088C29.4215 48.6914 28.9825 48.2783 28.4455 48.0357C27.9086 47.7931 27.3046 47.7348 26.7301 47.8701C26.1556 48.0055 25.6437 48.3267 25.2761 48.7825C24.9085 49.2383 24.7064 49.8024 24.7021 50.3846C24.7039 50.9679 24.9042 51.5336 25.2709 51.9913C25.6376 52.449 26.1495 52.7721 26.7247 52.9089C27.2998 53.0457 27.9049 52.9883 28.4429 52.7458C28.981 52.5034 29.421 52.0899 29.6924 51.5717L28.9676 51.2182Z" fill="white"/>
<path fill-rule="evenodd" clip-rule="evenodd" d="M0 39.2539H19.6666L21.9579 43.6448H0V39.2539Z" fill="white"/>
<path d="M46.6183 0C53.1277 0.00344323 59.5209 1.70092 65.1515 4.92085C70.7821 8.14077 75.4506 12.769 78.6851 18.3377H73.4306C72.2919 16.7014 71.0031 15.1718 69.5803 13.7682C63.973 8.21299 56.4929 4.87919 48.5581 4.39884C40.6234 3.91849 32.7856 6.325 26.5309 11.1621C20.2763 15.9992 16.0395 22.9306 14.624 30.642C13.2084 38.3535 14.7125 46.3089 18.851 53H13.7475C10.866 47.4499 9.47851 41.2635 9.71787 35.0332C9.95723 28.8029 11.8155 22.7376 15.1145 17.4183C18.4136 12.099 23.043 7.70388 28.5592 4.65398C34.0754 1.60408 40.2937 0.00158005 46.6183 0" fill="white"/>
<path d="M79.272 21.0996H84.9342V36.4009H79.4909V28.2144H79.272L75.1651 32.903L71.0656 28.2032H70.8429V36.3897H65.411V21.0996H71.0732L75.1726 25.7994L79.272 21.0996ZM49.9986 32.0286H55.5437V31.809L52.7693 28.7502L55.321 25.6766V25.457H49.9986V32.0286ZM44.5667 36.4009V21.0996H61.4173V25.4719L58.6466 28.7502L61.64 32.0286V36.4009H44.5667ZM22.0576 28.7502L26.0476 21.0996H40.354V27.2209H35.141V25.4719H29.7091L28.0444 28.7502L29.7091 32.0286H35.141V30.2796H40.354V36.4009H26.0476L22.0576 28.7502Z" fill="white"/>
<path fill-rule="evenodd" clip-rule="evenodd" d="M106.999 43.6448H29.386L27.0947 39.2539H106.999V43.6448Z" fill="white"/>
</svg>
