<svg width="32" height="32" viewBox="0 0 32 32" fill="none" xmlns="http://www.w3.org/2000/svg">
<path d="M19.5723 16.1361L28.0003 21.7163V10.3203L19.5723 16.1361Z" fill="white"/>
<path d="M3 10.3203V21.7163L11.428 16.1361L3 10.3203Z" fill="white"/>
<path d="M26.4367 7H4.56205C3.78237 7 3.16363 7.60874 3.04645 8.39259L15.4994 16.9854L27.9523 8.39259C27.8351 7.60874 27.2164 7 26.4367 7Z" fill="white"/>
<path d="M18.1412 17.1266L15.9303 18.6518C15.799 18.7418 15.6506 18.786 15.5006 18.786C15.3506 18.786 15.2022 18.7418 15.0709 18.6518L12.86 17.125L3.05078 23.6232C3.17109 24.4005 3.78671 25.0043 4.56326 25.0043H26.4379C27.2145 25.0043 27.8301 24.4005 27.9504 23.6232L18.1412 17.1266Z" fill="white"/>
</svg>
