<svg width="25" height="28" viewBox="0 0 25 28" fill="none" xmlns="http://www.w3.org/2000/svg">
<path d="M23.0263 18.4358C21.4842 18.4358 19.9737 18.1661 18.5421 17.637C17.8434 17.3674 17.05 17.5751 16.5908 18.0998L13.7526 20.5004C10.4961 18.5537 8.41185 16.2209 6.69739 12.6L8.7829 9.49643C9.3079 8.90843 9.49608 8.04777 9.27108 7.24169C8.79474 5.628 8.55266 3.93474 8.55266 2.21053C8.55266 0.991767 7.66715 0 6.57897 0H1.97369C0.885506 0 0 0.991767 0 2.21053C0 16.4301 10.3303 28 23.0263 28C24.1145 28 25 27.0082 25 25.7895V20.6463C25 19.4276 24.1145 18.4358 23.0263 18.4358Z" fill="white"/>
</svg>
