<svg width="54" height="24" viewBox="0 0 54 24" fill="none" xmlns="http://www.w3.org/2000/svg">
<g clip-path="url(#clip0_999_11539)">
<path d="M9.16749 19.6034C6.5176 19.3891 4.34275 18.3649 2.61327 16.5036C0.883782 14.6422 0.046875 12.4071 0.046875 9.84768C0.046875 7.12523 1.00255 4.80462 2.91389 2.88584C4.82523 0.978668 7.2376 0.0351562 10.1232 0.0351562C13.0087 0.0351562 15.4192 0.978668 17.3306 2.89134C19.2419 4.80401 20.1976 7.12523 20.1976 9.85317C20.2203 11.7441 19.6796 13.6 18.6425 15.19C17.6313 16.7684 16.1677 18.0144 14.4376 18.7698C14.7504 19.1482 15.1478 19.4498 15.5986 19.651C16.0493 19.8522 16.5412 19.9475 17.0355 19.9295C17.827 19.937 18.607 19.7419 19.2995 19.3634V23.3793C18.3353 23.7972 17.2924 24.0089 16.2395 24.0003C13.9458 24.0003 11.8155 22.8407 9.16749 19.6034ZM10.1232 15.1826C10.7938 15.1976 11.4599 15.0706 12.0767 14.8102C12.6935 14.5499 13.2467 14.1621 13.699 13.673C14.6547 12.6764 15.1465 11.3811 15.1465 9.84585C15.1465 8.31058 14.6603 7.01714 13.699 6.01867C13.2464 5.52998 12.6932 5.14247 12.0764 4.88211C11.4597 4.62175 10.7937 4.49455 10.1232 4.50905C9.44818 4.49437 8.77774 4.62136 8.15618 4.8816C7.53462 5.14184 6.97611 5.52941 6.5176 6.01867C5.56749 7.01714 5.09801 8.31058 5.09801 9.84768C5.09801 11.3848 5.56749 12.6782 6.5176 13.6749C6.97581 14.1645 7.53427 14.5523 8.1559 14.8126C8.77753 15.0728 9.44812 15.1996 10.1232 15.1845V15.1826Z" fill="white"/>
<path d="M23.6562 16.4959V4.84766H27.3527V15.6312C27.3527 16.1661 27.6033 16.4354 28.1043 16.4354C28.3225 16.4413 28.5386 16.3915 28.7315 16.2907V19.1561C28.2082 19.4254 27.5198 19.5481 26.6903 19.5481C24.6583 19.5481 23.6562 18.5386 23.6562 16.4959Z" fill="white"/>
<path d="M30.3173 18.5807C29.9662 18.2623 29.6892 17.8726 29.5053 17.4383C29.3214 17.0041 29.235 16.5357 29.2521 16.0653C29.2725 13.6946 31.4455 12.6228 33.3866 12.6851C34.3141 12.6602 35.2353 12.8431 36.081 13.2201V13.0754C36.081 12.3334 35.7674 11.8387 35.2051 11.6537C34.6964 11.4721 34.1573 11.3881 33.6167 11.4064C32.5376 11.3945 31.4736 11.6569 30.527 12.1685V9.30315C31.6404 8.78834 32.969 8.54102 34.5148 8.54102C36.0606 8.54102 37.3336 8.93124 38.2948 9.69521C39.256 10.4592 39.7367 11.4686 39.7367 12.7676V15.9389C39.7367 16.3053 39.9451 16.4885 40.362 16.4885C40.5715 16.4984 40.7802 16.4562 40.9688 16.3657V18.9636C40.5086 19.3135 39.8814 19.5004 39.089 19.5004C37.8569 19.5004 36.9791 19.1083 36.4911 18.3041C35.6362 19.1285 34.5086 19.5407 33.1082 19.5407C31.967 19.5499 31.028 19.2201 30.3173 18.5807ZM36.081 16.199V15.0998C35.6303 14.785 35.0869 14.626 34.5352 14.6473C33.6074 14.6473 32.8855 15.1419 32.8855 15.9041C32.8855 16.6662 33.5332 17.1004 34.3701 17.1004C34.7114 17.112 35.0497 17.0338 35.3504 16.8738C35.651 16.7138 35.9032 16.4778 36.081 16.1899V16.199Z" fill="white"/>
<path d="M46.0481 19.2826H42.3516V4.84961H46.0481V9.97938C46.7996 9.01022 47.8648 8.53755 49.2213 8.53755C49.8831 8.52678 50.5388 8.66389 51.1394 8.93864C51.74 9.21338 52.2699 9.61865 52.6895 10.1241C53.6081 11.1757 54.0664 12.4746 54.0664 14.0411C54.0664 15.6075 53.6081 16.9284 52.6895 17.98C52.2689 18.4829 51.7383 18.8851 51.1376 19.1564C50.5369 19.4278 49.8817 19.5611 49.2213 19.5464C47.8239 19.5464 46.7792 19.0719 46.0481 18.1027V19.2826ZM50.3922 14.0447C50.3922 12.6634 49.4643 11.6337 48.1654 11.6337C47.7448 11.6138 47.3265 11.7067 46.9551 11.9025C46.5836 12.0983 46.2727 12.3897 46.0555 12.7458V15.3437C46.2725 15.7001 46.5833 15.9919 46.9547 16.188C47.3262 16.3841 47.7446 16.4773 48.1654 16.4575C49.4736 16.4575 50.3922 15.4261 50.3922 14.0447Z" fill="white"/>
<path d="M16.8222 20.4431C18.7779 20.4431 20.3632 18.8513 20.3632 16.8876C20.3632 14.9239 18.7779 13.332 16.8222 13.332C14.8666 13.332 13.2812 14.9239 13.2812 16.8876C13.2812 18.8513 14.8666 20.4431 16.8222 20.4431Z" fill="url(#paint0_linear_999_11539)"/>
</g>
<defs>
<linearGradient id="paint0_linear_999_11539" x1="15.0525" y1="19.9668" x2="18.6153" y2="13.8211" gradientUnits="userSpaceOnUse">
<stop stop-color="#8947EC"/>
<stop offset="1" stop-color="#70D3F0"/>
</linearGradient>
<clipPath id="clip0_999_11539">
<rect width="54" height="24" fill="white"/>
</clipPath>
</defs>
</svg>
